<?xml version="1.0" standalone="no"?>
<!DOCTYPE svg PUBLIC "-//W3C//DTD SVG 20010904//EN"
 "http://www.w3.org/TR/2001/REC-SVG-20010904/DTD/svg10.dtd">
<svg version="1.0" xmlns="http://www.w3.org/2000/svg"
 width="400.000000pt" height="400.000000pt" viewBox="0 0 400.000000 400.000000"
 preserveAspectRatio="xMidYMid meet">

<g transform="translate(0.000000,400.000000) scale(0.100000,-0.100000)"
fill="#000000" stroke="none">
<path d="M150 3396 c0 -315 -3 -588 -6 -605 l-6 -31 -69 0 -69 0 0 -740 0
-740 75 0 75 0 0 -185 0 -184 63 -3 62 -3 3 -132 3 -133 69 0 70 0 0 -80 0
-79 83 -3 82 -3 2 -35 c1 -19 2 -54 2 -77 l1 -43 80 0 80 0 0 -70 0 -70 75 0
75 0 0 -75 0 -75 1100 0 1100 0 0 75 0 75 80 0 80 0 0 70 0 69 78 3 77 3 3 78
3 77 84 0 85 0 0 80 0 80 70 0 70 0 0 135 0 134 63 3 62 3 3 188 2 187 70 0
70 0 0 740 0 740 -70 0 -70 0 0 600 0 600 -220 0 -220 0 0 -70 0 -70 -85 0
-85 0 0 -80 0 -80 -85 0 -85 0 0 -80 0 -80 -85 0 -84 0 -3 -82 -3 -83 -190 0
-190 0 -3 78 -3 77 -489 0 -490 0 0 -80 0 -80 -160 0 -159 0 -3 83 -3 82 -157
3 -158 3 0 79 0 79 -82 3 -83 3 -3 78 -3 77 -74 0 -75 0 0 70 0 70 -215 0
-215 0 0 -574z m410 194 l0 -80 85 0 85 0 0 -85 0 -85 85 0 85 0 0 -85 0 -85
-170 0 -170 0 0 -75 0 -75 -95 0 -95 0 0 325 0 325 95 0 95 0 0 -80z m3060
-245 l0 -326 -92 3 -93 3 -3 73 -3 72 -174 0 -175 0 0 85 0 85 85 0 84 0 3 83
3 82 83 3 82 3 0 79 0 80 100 0 100 0 0 -325z m-1448 -362 l3 -178 72 -3 73
-3 2 -672 3 -672 128 -3 127 -3 0 -79 0 -80 75 0 75 0 0 -80 0 -79 88 -3 87
-3 3 -147 3 -148 334 0 335 0 0 -75 0 -75 -335 0 -334 0 -3 -77 -3 -78 -87 -3
-88 -3 0 -74 0 -75 -75 0 -75 0 0 -80 0 -80 -150 0 -149 0 -3 153 -3 152 -92
3 c-111 3 -105 -8 -101 177 l3 130 58 3 57 3 0 74 0 75 70 0 70 0 0 155 0 155
-330 0 -330 0 0 -155 0 -155 70 0 70 0 0 -75 0 -75 55 0 55 0 0 -155 0 -154
-112 -3 -113 -3 -3 -152 -3 -153 -149 0 -150 0 0 80 0 80 -75 0 -75 0 0 75 0
75 -90 0 -90 0 0 -75 0 -75 -160 0 -160 0 0 75 0 75 160 0 160 0 0 80 0 80
-325 0 -325 0 0 75 0 75 325 0 324 0 3 147 3 148 88 3 87 3 0 79 0 80 75 0 75
0 0 80 0 79 153 3 152 3 3 673 2 672 70 0 70 0 0 173 c0 96 3 177 7 180 3 4
75 7 159 7 l154 0 2 -177z m-922 -803 l0 -80 75 0 75 0 0 -215 0 -215 -75 0
-75 0 0 -80 0 -80 -215 0 -215 0 0 80 0 80 -80 0 -80 0 0 215 0 215 80 0 80 0
0 80 0 80 215 0 215 0 0 -80z m1950 0 l0 -80 75 0 75 0 0 -215 0 -215 -75 0
-75 0 0 -80 0 -80 -235 0 -235 0 0 80 0 80 -75 0 -75 0 0 215 0 215 75 0 75 0
0 80 0 80 235 0 235 0 0 -80z m-2260 -1115 l0 -75 -325 0 -325 0 0 75 0 75
325 0 325 0 0 -75z m2770 0 l0 -75 -325 0 -325 0 0 75 0 75 325 0 325 0 0 -75z
m-460 -620 l0 -75 -170 0 -170 0 0 75 0 75 170 0 170 0 0 -75z"/>
<path d="M820 1885 l0 -215 215 0 215 0 0 215 0 215 -215 0 -215 0 0 -215z"/>
<path d="M2730 1885 l0 -215 235 0 235 0 0 215 0 215 -235 0 -235 0 0 -215z"/>
</g>
</svg>
